<svg width="197" height="165" viewBox="0 0 197 165" fill="none" xmlns="http://www.w3.org/2000/svg">
<g filter="url(#filter0_d_5_5514)">
<path fill-rule="evenodd" clip-rule="evenodd" d="M3 55.2795C3 47.2326 7.82258 39.9694 15.2389 36.8468L90.2793 5.25082C95.2186 3.17114 100.786 3.16075 105.733 5.22198L181.692 36.8718C189.145 39.9772 194 47.2593 194 55.3333V132C194 143.046 185.046 152 174 152H23C11.9543 152 3 143.046 3 132V55.2795Z" fill="#FD6687"/>
<path d="M89.6973 3.86816C95.0068 1.63259 100.992 1.62121 106.31 3.83691L182.27 35.4873C190.281 38.8256 195.5 46.6537 195.5 55.333V132C195.5 143.874 185.874 153.5 174 153.5H23C11.1259 153.5 1.5 143.874 1.5 132V55.2793C1.50008 46.629 6.68479 38.8207 14.6572 35.4639L89.6973 3.86816Z" stroke="black" stroke-width="3"/>
</g>
<defs>
<filter id="filter0_d_5_5514" x="0" y="0.683517" width="197" height="164.316" filterUnits="userSpaceOnUse" color-interpolation-filters="sRGB">
<feFlood flood-opacity="0" result="BackgroundImageFix"/>
<feColorMatrix in="SourceAlpha" type="matrix" values="0 0 0 0 0 0 0 0 0 0 0 0 0 0 0 0 0 0 127 0" result="hardAlpha"/>
<feOffset dy="10"/>
<feColorMatrix type="matrix" values="0 0 0 0 0 0 0 0 0 0 0 0 0 0 0 0 0 0 1 0"/>
<feBlend mode="normal" in2="BackgroundImageFix" result="effect1_dropShadow_5_5514"/>
<feBlend mode="normal" in="SourceGraphic" in2="effect1_dropShadow_5_5514" result="shape"/>
</filter>
</defs>
</svg>
